<svg width="24" height="24" viewBox="0 0 24 24" fill="none" xmlns="http://www.w3.org/2000/svg">
<g clip-path="url(#clip0_178_2676)">
<path d="M23.5863 19.862H0.414055C0.18554 19.862 0.000244141 19.6767 0.000244141 19.4482V4.55169C0.000244141 4.32317 0.18554 4.13788 0.414055 4.13788H23.5864C23.8149 4.13788 24.0002 4.32317 24.0002 4.55169V19.4482C24.0001 19.6767 23.8149 19.862 23.5863 19.862Z" fill="#41479B"/>
<path d="M24.0002 4.55169C24.0002 4.32317 23.8149 4.13788 23.5863 4.13788H21.735L14.0691 9.16037V4.13788H9.93119V9.16037L2.26533 4.13788H0.414055C0.18554 4.13788 0.000244141 4.32317 0.000244141 4.55169V5.62189L6.5772 9.93095H0.000244141V14.0689H6.5772L0.000244141 18.378V19.4482C0.000244141 19.6767 0.18554 19.862 0.414055 19.862H2.26538L9.93128 14.8395V19.862H14.0692V14.8395L21.7351 19.862H23.5864C23.8149 19.862 24.0002 19.6767 24.0002 19.4482V18.378L17.4233 14.0689H24.0002V9.931H17.4232L24.0002 5.62189V4.55169Z" fill="#F5F5F5"/>
<path d="M24.0001 10.7586H13.2416V4.13788H10.7588V10.7586H0.000244141V13.2413H10.7588V19.862H13.2416V13.2413H24.0001V10.7586Z" fill="#FF4B55"/>
<path d="M8.38864 14.0689L0.012207 19.5063C0.0415038 19.7061 0.206269 19.8621 0.414252 19.8621H0.984203L9.9087 14.069H8.38864V14.0689V14.0689Z" fill="#FF4B55"/>
<path d="M16.2375 14.0689H14.7174L23.6289 19.8535C23.8366 19.8314 24.0005 19.6618 24.0005 19.4482V19.108L16.2375 14.0689Z" fill="#FF4B55"/>
<path d="M0.000488281 5.00853L7.58385 9.93104H9.10391L0.241565 4.17828C0.100004 4.24405 0.000488281 4.38538 0.000488281 4.55174V5.00853Z" fill="#FF4B55"/>
<path d="M15.5896 9.93104L23.9862 4.48058C23.9513 4.28736 23.7901 4.13797 23.5868 4.13797H22.9939L14.0696 9.93104H15.5896Z" fill="#FF4B55"/>
</g>
<defs>
<clipPath id="clip0_178_2676">
<rect width="24" height="24" fill="white"/>
</clipPath>
</defs>
</svg>
